# xmcd CD database file
#
# Track frame offsets:
#	150
#	11750
#	31407
#	44117
#	57960
#	73738
#	88524
#	102213
#	113836
#	128274
#	141314
#	154776
#
# Disc length: 2272 seconds
#
# Revision: 0
# Processed by: cddbd v1.5.2PL0 Copyright (c) Steve Scherf et al.
# Submitted via: CDex 2.02
#
DISCID=a108de0c
DTITLE=R J Brissette - Just Thought You Might Want to Know
DYEAR=2007
DGENRE=Blues
TTITLE0=Ain't Gonna Take It No More
TTITLE1=Anna Malone
TTITLE2=The Ol' Troubador
TTITLE3=There's a Hole in My Pocket
TTITLE4=Here It Comes There It Goes
TTITLE5=Can't Live No Lie
TTITLE6=Wild Eyes
TTITLE7=A Child's Love
TTITLE8=Nothing Adds Up
TTITLE9=It All Comes Around
TTITLE10=Remember the Day
TTITLE11=War!
EXTD=YEAR: 2007
EXTT0=
EXTT1=
EXTT2=
EXTT3=
EXTT4=
EXTT5=
EXTT6=
EXTT7=
EXTT8=
EXTT9=
EXTT10=
EXTT11=
PLAYORDER=
